<svg width="32" height="32" viewBox="0 0 32 32" fill="none" xmlns="http://www.w3.org/2000/svg">
<path fill-rule="evenodd" clip-rule="evenodd" d="M16.1886 6.36665C19.3479 3.21112 24.4706 3.21112 27.6299 6.36665C30.7898 9.52364 30.7901 14.6413 27.6299 17.7976L16 29.4133L4.37005 17.7984C1.21 14.6422 1.20997 9.52372 4.37003 6.36752C7.5294 3.21198 12.652 3.21198 15.8114 6.36752L15.1047 7.07505L15.8105 6.36662L15.8114 6.36752C15.8756 6.43152 15.9384 6.49631 15.9998 6.56184C16 7 16 7.12376 16 7.5C16 7.07505 16 7 15.9998 6.56184C16.0613 6.49603 16.1242 6.43095 16.1886 6.36665ZM26.2165 7.78161C23.8379 5.40609 19.9804 5.40613 17.6019 7.78172C17.3104 8.0729 17.0554 8.38889 16.832 8.7239L16 9.97182L15.168 8.7239C14.9446 8.38884 14.6898 8.07324 14.399 7.78349L14.3981 7.78259C12.0195 5.40696 8.16191 5.40696 5.78338 7.78259C3.40552 10.1576 3.40552 14.0084 5.78338 16.3833L16 26.5867L26.2166 16.3825C28.5944 14.0076 28.5944 10.1575 26.2165 7.78161Z" fill="white"/>
</svg>
