<svg width="16" height="16" viewBox="0 0 16 16" fill="none" xmlns="http://www.w3.org/2000/svg">
<path fill-rule="evenodd" clip-rule="evenodd" d="M7.99987 2.25C6.4995 2.25 5.2832 3.46629 5.2832 4.96667C5.2832 6.46704 6.4995 7.68333 7.99987 7.68333C9.50024 7.68333 10.7165 6.46704 10.7165 4.96667C10.7165 3.46629 9.50024 2.25 7.99987 2.25ZM3.7832 4.96667C3.7832 2.63787 5.67107 0.75 7.99987 0.75C10.3287 0.75 12.2165 2.63787 12.2165 4.96667C12.2165 7.03945 10.7209 8.76293 8.75 9.11681V12C8.75 12.4142 8.41421 12.75 8 12.75C7.58579 12.75 7.25 12.4142 7.25 12V9.11686C5.27894 8.76308 3.7832 7.03955 3.7832 4.96667ZM3.5 13.75C3.08579 13.75 2.75 14.0858 2.75 14.5C2.75 14.9142 3.08579 15.25 3.5 15.25H12.5C12.9142 15.25 13.25 14.9142 13.25 14.5C13.25 14.0858 12.9142 13.75 12.5 13.75H3.5Z" fill="#A8A9AE"/>
</svg>
