<svg width="16" height="16" viewBox="0 0 16 16" fill="none" xmlns="http://www.w3.org/2000/svg">
<path fill-rule="evenodd" clip-rule="evenodd" d="M2.22222 8.05557C2.23756 8.05557 2.25 8.04313 2.25 8.02779C2.25 8.01245 2.23756 8.00002 2.22222 8.00002C2.20688 8.00002 2.19444 8.01245 2.19444 8.02779C2.19444 8.04313 2.20688 8.05557 2.22222 8.05557ZM0.75 8.02779C0.75 7.21471 1.40914 6.55557 2.22222 6.55557C3.03531 6.55557 3.69444 7.21471 3.69444 8.02779C3.69444 8.84088 3.03531 9.50002 2.22222 9.50002C1.40914 9.50002 0.75 8.84088 0.75 8.02779ZM8 8.05557C8.01534 8.05557 8.02778 8.04313 8.02778 8.02779C8.02778 8.01245 8.01534 8.00002 8 8.00002C7.98466 8.00002 7.97222 8.01245 7.97222 8.02779C7.97222 8.04313 7.98466 8.05557 8 8.05557ZM6.52778 8.02779C6.52778 7.21471 7.18691 6.55557 8 6.55557C8.81309 6.55557 9.47222 7.21471 9.47222 8.02779C9.47222 8.84088 8.81309 9.50002 8 9.50002C7.18691 9.50002 6.52778 8.84088 6.52778 8.02779ZM13.7778 8.05557C13.7931 8.05557 13.8056 8.04313 13.8056 8.02779C13.8056 8.01245 13.7931 8.00002 13.7778 8.00002C13.7624 8.00002 13.75 8.01245 13.75 8.02779C13.75 8.04313 13.7624 8.05557 13.7778 8.05557ZM12.3056 8.02779C12.3056 7.21471 12.9647 6.55557 13.7778 6.55557C14.5909 6.55557 15.25 7.21471 15.25 8.02779C15.25 8.84088 14.5909 9.50002 13.7778 9.50002C12.9647 9.50002 12.3056 8.84088 12.3056 8.02779Z" fill="#292B36"/>
</svg>
